<?xml version="1.0" encoding="iso-8859-1"?>
<!-- Uploaded to: SVG Repo, www.svgrepo.com, Generator: SVG Repo Mixer Tools -->
<svg height="800px" width="800px" version="1.1" id="Layer_1" xmlns="http://www.w3.org/2000/svg" xmlns:xlink="http://www.w3.org/1999/xlink" 
	 viewBox="0 0 511.999 511.999" xml:space="preserve">
<path style="fill:#DFDFE2;" d="M402.915,467.736V20.195c0-6.95-5.634-12.585-12.585-12.585H58.481
	c-6.95,0-12.585,5.634-12.585,12.585v427.563v3.627c0,29.274,23.731,53.005,53.005,53.005h3.627L402.915,467.736z"/>
<g style="opacity:0.24;">
	<path style="fill:#ACAAB1;" d="M72.927,497.585c7.677,4.325,16.533,6.805,25.974,6.805h3.627l300.387-36.655V234.444
		C306.116,384.326,150.738,464.774,72.927,497.585z"/>
</g>
<polygon style="fill:#5374FC;" points="336.012,342.813 336.012,418.621 298.082,398.615 260.152,418.621 260.152,342.813 "/>
<path style="fill:#ACAAB1;" d="M97.69,504.39h315.406c29.274,0,53.005-23.731,53.005-53.005h-25.334H149.761
	c0,29.274-23.731,53.005-53.005,53.005"/>
<path style="opacity:0.19;fill:#494949;enable-background:new    ;" d="M446.493,451.385c-7.545,20.076-26.912,34.365-49.625,34.365
	H139.506c-9.722,11.401-24.182,18.64-40.339,18.64h0.934h315.407c29.274,0,53.005-23.731,53.005-53.005H446.493z"/>
<g>
	<path style="fill:#ACAAB1;" d="M344.69,88.684H109.986c-8.393,0-15.261-6.867-15.261-15.261v-0.66
		c0-8.393,6.867-15.261,15.261-15.261h234.705c8.393,0,15.261,6.867,15.261,15.261v0.66
		C359.951,81.817,353.084,88.684,344.69,88.684z"/>
	<path style="fill:#ACAAB1;" d="M344.69,148.452H109.986c-8.393,0-15.261-6.867-15.261-15.261v-0.66
		c0-8.393,6.867-15.261,15.261-15.261h234.705c8.393,0,15.261,6.867,15.261,15.261v0.66
		C359.951,141.585,353.084,148.452,344.69,148.452z"/>
	<path style="fill:#ACAAB1;" d="M204.514,208.219h-92.161c-8.393,0-15.261-6.867-15.261-15.261v-0.66
		c0-8.393,6.867-15.261,15.261-15.261h92.161c8.393,0,15.261,6.867,15.261,15.261v0.66
		C219.775,201.352,212.908,208.219,204.514,208.219z"/>
</g>
<polygon style="fill:#4D53F1;" points="298.082,342.813 298.082,398.615 336.012,418.621 336.012,342.813 "/>
<circle style="fill:#EEBF00;" cx="298.086" cy="283.443" r="70.437"/>
<circle style="fill:#FFDF66;" cx="298.086" cy="283.443" r="41.749"/>
<path style="opacity:0.12;fill:#663C1D;enable-background:new    ;" d="M332.73,222.123c5.794,10.233,9.119,22.05,9.119,34.649
	c0,38.903-31.538,70.441-70.441,70.441c-12.6,0-24.416-3.323-34.649-9.118c12.097,21.365,35.019,35.793,61.323,35.793
	c38.903,0,70.441-31.538,70.441-70.441C368.523,257.142,354.094,234.22,332.73,222.123z"/>
<path d="M466.102,443.774h-55.575V20.195C410.526,9.06,401.466,0,390.331,0H58.481C47.345,0,38.286,9.06,38.286,20.195v431.189
	c0,32.331,25.445,58.829,57.361,60.526c0.363,0.053,0.731,0.089,1.109,0.089c0.231,0,0.46-0.001,0.69-0.004
	c0.081,0.003,0.162,0.004,0.245,0.004h1.211h3.627h310.568c33.424,0,60.616-27.193,60.616-60.615
	C473.713,447.181,470.305,443.774,466.102,443.774z M97.829,496.751c-24.535-0.573-44.32-20.696-44.32-45.367V20.195
	c0-2.742,2.231-4.974,4.973-4.974h331.85c2.742,0,4.974,2.232,4.974,4.974v423.578H149.761c-4.204,0-7.611,3.407-7.611,7.611
	C142.15,476.055,122.364,496.177,97.829,496.751z M413.096,496.778h-276.21c10.764-9.528,18.127-22.813,20.011-37.782h300.956
	C454.223,480.415,435.534,496.778,413.096,496.778z"/>
<path d="M298.082,205.393c-43.039,0-78.053,35.015-78.053,78.052c0,26.051,12.841,49.145,32.512,63.331v71.846
	c0,2.667,1.396,5.139,3.681,6.518c2.282,1.376,5.122,1.457,7.481,0.214l34.379-18.134l34.379,18.134
	c1.113,0.587,2.333,0.879,3.551,0.879c1.363,0,2.725-0.365,3.93-1.093c2.284-1.378,3.681-3.851,3.681-6.518v-71.846
	c19.671-14.186,32.511-37.28,32.511-63.331C376.134,240.408,341.119,205.393,298.082,205.393z M328.401,406.002l-26.768-14.12
	c-2.221-1.171-4.88-1.171-7.102,0l-26.768,14.12v-50.633c9.326,3.947,19.572,6.13,30.319,6.13s20.993-2.184,30.319-6.13
	L328.401,406.002L328.401,406.002z M298.082,346.277c-34.645,0-62.831-28.186-62.831-62.831s28.186-62.83,62.831-62.83
	s62.83,28.185,62.83,62.83C360.912,318.091,332.727,346.277,298.082,346.277z"/>
<path d="M298.082,234.089c-27.215,0-49.357,22.141-49.357,49.357c0,27.216,22.141,49.357,49.357,49.357
	c27.214,0,49.356-22.141,49.356-49.357C347.437,256.23,325.296,234.089,298.082,234.089z M298.082,317.58
	c-18.821,0-34.135-15.313-34.135-34.135s15.313-34.135,34.135-34.135s34.134,15.313,34.134,34.135S316.903,317.58,298.082,317.58z"
	/>
<path d="M109.986,96.295H344.69c12.612,0,22.871-10.26,22.871-22.871v-0.661c0-12.611-10.26-22.871-22.871-22.871H109.986
	c-12.612,0-22.872,10.26-22.872,22.871v0.661C87.114,86.035,97.374,96.295,109.986,96.295z M102.336,72.763
	c0-4.217,3.432-7.649,7.65-7.649H344.69c4.217,0,7.65,3.431,7.65,7.649v0.661c0,4.217-3.432,7.649-7.65,7.649H109.986
	c-4.217,0-7.65-3.431-7.65-7.649V72.763z"/>
<path d="M109.986,156.063H344.69c12.612,0,22.871-10.26,22.871-22.872v-0.66c0-12.611-10.26-22.87-22.871-22.87H109.986
	c-12.612,0-22.872,10.26-22.872,22.87v0.66C87.114,145.803,97.374,156.063,109.986,156.063z M102.336,132.532
	c0-4.217,3.432-7.649,7.65-7.649H344.69c4.217,0,7.65,3.431,7.65,7.649v0.66c0,4.217-3.432,7.65-7.65,7.65H109.986
	c-4.217,0-7.65-3.432-7.65-7.65V132.532z"/>
<path d="M227.386,192.96v-0.66c0-12.611-10.26-22.87-22.872-22.87h-92.16c-12.612,0-22.872,10.26-22.872,22.87v0.66
	c0,12.612,10.26,22.872,22.872,22.872h92.16C217.126,215.831,227.386,205.571,227.386,192.96z M104.705,192.96v-0.66
	c0-4.217,3.432-7.649,7.65-7.649h92.16c4.217,0,7.65,3.431,7.65,7.649v0.66c0,4.217-3.432,7.65-7.65,7.65h-92.16
	C108.137,200.609,104.705,197.177,104.705,192.96z"/>
</svg>